<svg width="24" height="25" viewBox="0 0 24 25" fill="none" xmlns="http://www.w3.org/2000/svg">
<g clip-path="url(#clip0_150572_6109)">
<path d="M23.766 12.7763C23.766 11.9605 23.6999 11.1404 23.5588 10.3379H12.24V14.9589H18.7217C18.4528 16.4492 17.5885 17.7676 16.323 18.6054V21.6037H20.19C22.4608 19.5137 23.766 16.4272 23.766 12.7763Z" fill="#4285F4"/>
<path d="M12.24 24.5013C15.4764 24.5013 18.2058 23.4387 20.1944 21.6044L16.3274 18.606C15.2516 19.338 13.8626 19.7525 12.2444 19.7525C9.11376 19.7525 6.45934 17.6404 5.50693 14.8008H1.51648V17.8917C3.55359 21.9439 7.70278 24.5013 12.24 24.5013Z" fill="#34A853"/>
<path d="M5.50253 14.8007C4.99987 13.3103 4.99987 11.6965 5.50253 10.2062V7.11523H1.51649C-0.18551 10.506 -0.18551 14.5009 1.51649 17.8916L5.50253 14.8007Z" fill="#FBBC04"/>
<path d="M12.24 5.24966C13.9508 5.2232 15.6043 5.86697 16.8433 7.04867L20.2694 3.62262C18.1 1.5855 15.2207 0.465534 12.24 0.500809C7.70277 0.500809 3.55359 3.05822 1.51648 7.11481L5.50252 10.2058C6.45052 7.36173 9.10935 5.24966 12.24 5.24966Z" fill="#EA4335"/>
</g>
<defs>
<clipPath id="clip0_150572_6109">
<rect width="24" height="24" fill="white" transform="translate(0 0.5)"/>
</clipPath>
</defs>
</svg>
